<svg width="97" height="77" viewBox="0 0 97 77" fill="none" xmlns="http://www.w3.org/2000/svg">
<path d="M8.60878 35.7115V37.8028C8.7681 38.6197 9.17268 39.3612 9.81848 40.0272C10.7009 40.9329 11.7642 41.3813 13.0084 41.3813C14.2525 41.3813 15.3158 40.9329 16.194 40.0272C17.0722 39.1259 17.5113 38.0336 17.5113 36.7505C17.5113 35.4762 17.0722 34.384 16.194 33.4738C15.3158 32.5636 14.2525 32.1063 13.0084 32.1063C11.7642 32.1063 10.7009 32.5636 9.81848 33.4738C9.17268 34.1398 8.7681 34.8857 8.60878 35.7115ZM8.60878 42.1495V43.8144H6V23H8.60878V31.3515C9.8701 30.0107 11.3381 29.3358 13.0084 29.3358C14.9929 29.3358 16.6847 30.0595 18.0881 31.5114C19.4873 32.9588 20.1846 34.7037 20.1846 36.7505C20.1846 38.7973 19.4873 40.5466 18.0881 41.994C16.6847 43.4415 14.9929 44.1652 13.0084 44.1652C11.3381 44.1652 9.8701 43.4947 8.60878 42.1495Z" fill="#2B2B2A"/>
<path d="M27.6918 40.782C28.1309 41.1816 28.923 41.3813 30.0767 41.3813C31.3208 41.3813 32.3841 40.9329 33.2666 40.0272C33.3742 39.9073 33.5981 39.6409 33.9339 39.2236L36.5469 40.187C35.9055 41.0972 35.4449 41.6966 35.1565 41.994C33.7531 43.4415 32.0612 44.1652 30.0767 44.1652C28.1007 44.1652 26.4089 43.4415 25.0055 41.994C23.6021 40.5466 22.9004 38.7973 22.9004 36.7505C22.9004 34.7037 23.6021 32.9588 25.0055 31.5114C26.4089 30.0595 28.1007 29.3358 30.0767 29.3358C31.7728 29.3358 33.2623 29.8641 34.5408 30.9253C34.7518 31.1073 34.9584 31.3027 35.1565 31.5069C35.2426 31.5957 35.4836 31.871 35.8754 32.3283L34.5667 33.6958L27.6918 40.782ZM32.057 32.4571C31.7599 32.2262 31.1012 32.1063 30.0767 32.1063C28.8412 32.1063 27.7822 32.5592 26.904 33.465C26.0258 34.3752 25.5867 35.4673 25.5867 36.7505C25.5867 37.7983 25.6986 38.4821 25.9267 38.7929L32.057 32.4571Z" fill="#2B2B2A"/>
<path d="M50.8226 37.7539V35.7737C50.6719 34.9345 50.2673 34.1709 49.6129 33.4871C48.7262 32.5858 47.6671 32.1329 46.4316 32.1329C45.1875 32.1329 44.1285 32.5858 43.246 33.4871C42.3678 34.3885 41.9287 35.4807 41.9287 36.7638C41.9287 38.0381 42.3678 39.1303 43.246 40.0361C44.1285 40.9418 45.1875 41.3947 46.4316 41.3947C47.6671 41.3947 48.7262 40.9418 49.6129 40.0405C50.2673 39.3567 50.6719 38.593 50.8226 37.7539ZM50.8226 31.3648V30.428H53.4443V43.8278H50.8226V42.1495C49.5613 43.4947 48.0976 44.1652 46.4316 44.1652C44.4471 44.1652 42.7553 43.4459 41.3562 41.9985C39.957 40.5555 39.2554 38.8106 39.2554 36.7638C39.2554 34.717 39.957 32.9721 41.3562 31.5291C42.7553 30.0861 44.4471 29.3624 46.4316 29.3624C48.0976 29.3624 49.5613 30.0284 50.8226 31.3648Z" fill="#2B2B2A"/>
<path d="M62.7381 43.9965C61.0979 43.9965 59.7763 43.4815 58.7776 42.447C57.7746 41.4169 57.2623 40.1248 57.2407 38.5709V30.4281H59.8624V38.4687C59.8624 39.2413 60.1337 39.9029 60.6804 40.4579C61.2271 41.0128 61.9073 41.2926 62.7252 41.2926C63.4742 41.2926 64.1243 41.0173 64.6753 40.4667C65.2221 39.9162 65.4975 39.2502 65.4975 38.4687V30.4281H68.1106V38.5709C68.0848 40.1248 67.5768 41.4169 66.5824 42.447C65.5836 43.4815 64.3008 43.9965 62.7381 43.9965Z" fill="#2B2B2A"/>
<path d="M73.47 30.428V25.4064H76.0788V30.428H78.4121V33.123H76.0788V43.8144H73.47V33.123H71.1367V30.428H73.47Z" fill="#2B2B2A"/>
<path d="M84.6467 48.3165H81.883L85.3398 40.8352L80.5098 30.428H83.4457L86.739 37.7539L90.0322 30.428H92.9552L84.6467 48.3165Z" fill="#2B2B2A"/>
<path d="M67.4704 45.3001V52.8725H66.5171V45.3001H67.4704Z" fill="#EBA6CA"/>
<path d="M72.9369 50.6686V49.9485C72.8821 49.6433 72.7349 49.3656 72.497 49.117C72.1745 48.7892 71.7894 48.6245 71.3401 48.6245C70.8876 48.6245 70.5026 48.7892 70.1817 49.117C69.8623 49.4447 69.7026 49.8419 69.7026 50.3085C69.7026 50.7719 69.8623 51.1691 70.1817 51.4985C70.5026 51.8278 70.8876 51.9925 71.3401 51.9925C71.7894 51.9925 72.1745 51.8278 72.497 51.5001C72.7349 51.2515 72.8821 50.9737 72.9369 50.6686ZM72.9369 48.3452V48.0045H73.8902V52.8773H72.9369V52.267C72.4782 52.7562 71.9459 53 71.3401 53C70.6184 53 70.0032 52.7384 69.4944 52.2121C68.9856 51.6874 68.7305 51.0528 68.7305 50.3085C68.7305 49.5642 68.9856 48.9296 69.4944 48.4049C70.0032 47.8802 70.6184 47.6171 71.3401 47.6171C71.9459 47.6171 72.4782 47.8592 72.9369 48.3452Z" fill="#EBA6CA"/>
<path d="M76.2441 49.9258V50.6863C76.302 50.9834 76.4491 51.253 76.684 51.4952C77.0049 51.8246 77.3915 51.9876 77.844 51.9876C78.2964 51.9876 78.6831 51.8246 79.0024 51.4952C79.3217 51.1674 79.4815 50.7703 79.4815 50.3037C79.4815 49.8403 79.3217 49.4431 79.0024 49.1121C78.6831 48.7811 78.2964 48.6148 77.844 48.6148C77.3915 48.6148 77.0049 48.7811 76.684 49.1121C76.4491 49.3543 76.302 49.6256 76.2441 49.9258ZM76.2441 52.267V52.8725H75.2954V45.3033H76.2441V48.3404C76.7027 47.8528 77.2366 47.6073 77.844 47.6073C78.5657 47.6073 79.1808 47.8705 79.6912 48.3985C80.2 48.9248 80.4536 49.5594 80.4536 50.3037C80.4536 51.048 80.2 51.6842 79.6912 52.2105C79.1808 52.7369 78.5657 53 77.844 53C77.2366 53 76.7027 52.7562 76.2441 52.267Z" fill="#EBA6CA"/>
</svg>
